<?xml version="1.0" encoding="UTF-8" standalone="no"?>
<!-- Created with Inkscape (http://www.inkscape.org/) -->

<svg
   xmlns:dc="http://purl.org/dc/elements/1.1/"
   xmlns:cc="http://creativecommons.org/ns#"
   xmlns:rdf="http://www.w3.org/1999/02/22-rdf-syntax-ns#"
   xmlns:svg="http://www.w3.org/2000/svg"
   xmlns="http://www.w3.org/2000/svg"
   xmlns:sodipodi="http://sodipodi.sourceforge.net/DTD/sodipodi-0.dtd"
   xmlns:inkscape="http://www.inkscape.org/namespaces/inkscape"
   width="700"
   height="700"
   viewBox="0 0 185.20833 185.20835"
   version="1.1"
   id="svg8"
   inkscape:version="0.92.5 (2060ec1f9f, 2020-04-08)"
   sodipodi:docname="dashticz.svg">
  <defs
     id="defs2" />
  <sodipodi:namedview
     id="base"
     pagecolor="#ffffff"
     bordercolor="#666666"
     borderopacity="1.0"
     inkscape:pageopacity="0.0"
     inkscape:pageshadow="2"
     inkscape:zoom="1"
     inkscape:cx="414.32809"
     inkscape:cy="329.73788"
     inkscape:document-units="mm"
     inkscape:current-layer="layer1"
     showgrid="false"
     fit-margin-top="0"
     fit-margin-left="0"
     fit-margin-right="0"
     fit-margin-bottom="0"
     showguides="true"
     inkscape:guide-bbox="true"
     inkscape:window-width="1920"
     inkscape:window-height="1013"
     inkscape:window-x="-9"
     inkscape:window-y="-9"
     inkscape:window-maximized="1"
     inkscape:pagecheckerboard="true"
     units="px" />
  <metadata
     id="metadata5">
    <rdf:RDF>
      <cc:Work
         rdf:about="">
        <dc:format>image/svg+xml</dc:format>
        <dc:type
           rdf:resource="http://purl.org/dc/dcmitype/StillImage" />
        <dc:title></dc:title>
      </cc:Work>
    </rdf:RDF>
  </metadata>
  <g
     inkscape:label="Layer 1"
     inkscape:groupmode="layer"
     id="layer1"
     transform="translate(-208.68066,-17.669173)">
    <g
       id="g43"
       transform="rotate(-180,301.28482,110.27333)"
       inkscape:export-xdpi="70.217148"
       inkscape:export-ydpi="70.217148">
      <circle
         inkscape:export-filename="R:\favicon.old\favicon-32x32.png"
         inkscape:export-ydpi="4.3885713"
         inkscape:export-xdpi="4.3885713"
         r="92.604164"
         cy="110.27332"
         cx="301.28482"
         id="path32"
         style="fill:#ff0000;stroke-width:0.25199553" />
    </g>
    <path
       style="fill:#ffffff;stroke-width:7.82647991"
       d="m 294.6702,169.86752 v -55.5625 h -52.91667 v 55.5625 z M 281.44103,157.16737 H 254.9827 v -27.78125 h 26.45833 z"
       id="path3764"
       inkscape:connector-curvature="0"
       inkscape:export-xdpi="70.217148"
       inkscape:export-ydpi="70.217148" />
    <path
       style="fill:#ffffff;stroke-width:6.61458302"
       d="m 360.81613,50.80502 v 66.14583 H 307.89946 V 50.80502 Z m -13.22917,13.22917 h -26.45833 v 39.6875 h 26.45833 z"
       id="path3762"
       inkscape:connector-curvature="0"
       inkscape:export-xdpi="70.217148"
       inkscape:export-ydpi="70.217148" />
    <path
       style="fill:#ffffff;stroke-width:6.61458302"
       d="m 360.81613,130.18002 v 39.6875 h -52.91667 v -39.6875 z m -13.22917,13.22916 h -26.45833 v 13.22917 h 26.45833 z"
       id="path39"
       inkscape:connector-curvature="0"
       inkscape:export-xdpi="70.217148"
       inkscape:export-ydpi="70.217148" />
    <g
       style="fill:#ffffff"
       id="g3819"
       transform="matrix(-4.2994101,0,0,-4.2994101,997.05782,1285.036)"
       inkscape:export-xdpi="70.217148"
       inkscape:export-ydpi="70.217148">
      <path
         id="path3753"
         d="m 170.16287,287.09912 c -0.15214,0 -0.30321,-0.008 -0.45217,-0.022 -0.0855,0.0132 -0.17145,0.022 -0.26035,0.022 h -4.32118 c -0.96837,0 -1.7608,-0.79243 -1.7608,-1.76133 v -0.0884 c 0,-0.96626 0.78819,-1.75683 1.75286,-1.76027 0,-2.7e-4 0,-5.3e-4 0,-5.3e-4 h 4.37066 c 1.45282,0 2.6416,-1.0922 2.6416,-2.42676 0,-1.33456 -1.18878,-2.42649 -2.6416,-2.42649 h -4.37066 c 0,0 0,-5.3e-4 0,-8e-4 -0.96467,-0.004 -1.75286,-0.79428 -1.75286,-1.76054 v -0.0884 c 0,-0.9689 0.79243,-1.76106 1.7608,-1.76106 h 4.32118 c 0.0889,0 0.17489,0.009 0.26035,0.0217 0.14896,-0.0138 0.30003,-0.0217 0.45217,-0.0217 3.03239,0 5.51339,2.71674 5.51339,6.03726 0,3.32078 -2.481,6.03726 -5.51339,6.03726 z"
         style="fill:#ffffff;stroke-width:0.26458332"
         inkscape:connector-curvature="0" />
      <path
         id="path27"
         d="m 171.00372,280.97799 v 0.11535 c 0,0.71755 -0.57971,1.30334 -1.29408,1.31816 v 0.003 h -1.87616 v -2.75696 h 1.87616 v 0.003 c 0.71411,0.0148 1.29408,0.6006 1.29408,1.31762 z"
         style="fill:#ffffff;stroke-width:0.26458332"
         inkscape:connector-curvature="0" />
    </g>
  </g>
</svg>
